<svg width="232" height="51" viewBox="0 0 232 51" fill="none" xmlns="http://www.w3.org/2000/svg">
<path d="M60.992 22V5.2H69.2C71.312 5.2 72.896 5.6 73.952 6.4C75.024 7.2 75.56 8.256 75.56 9.568C75.56 10.448 75.344 11.216 74.912 11.872C74.48 12.512 73.888 13.008 73.136 13.36C72.384 13.712 71.52 13.888 70.544 13.888L71 12.904C72.056 12.904 72.992 13.08 73.808 13.432C74.624 13.768 75.256 14.272 75.704 14.944C76.168 15.616 76.4 16.44 76.4 17.416C76.4 18.856 75.832 19.984 74.696 20.8C73.56 21.6 71.888 22 69.68 22H60.992ZM64.856 19.072H69.392C70.4 19.072 71.16 18.912 71.672 18.592C72.2 18.256 72.464 17.728 72.464 17.008C72.464 16.304 72.2 15.784 71.672 15.448C71.16 15.096 70.4 14.92 69.392 14.92H64.568V12.088H68.72C69.664 12.088 70.384 11.928 70.88 11.608C71.392 11.272 71.648 10.768 71.648 10.096C71.648 9.44 71.392 8.952 70.88 8.632C70.384 8.296 69.664 8.128 68.72 8.128H64.856V19.072ZM85.5876 22.192C84.1156 22.192 82.8196 21.904 81.6996 21.328C80.5956 20.752 79.7396 19.968 79.1316 18.976C78.5236 17.968 78.2196 16.824 78.2196 15.544C78.2196 14.248 78.5156 13.104 79.1076 12.112C79.7156 11.104 80.5396 10.32 81.5796 9.76C82.6196 9.184 83.7956 8.896 85.1076 8.896C86.3716 8.896 87.5076 9.168 88.5156 9.712C89.5396 10.24 90.3476 11.008 90.9396 12.016C91.5316 13.008 91.8276 14.2 91.8276 15.592C91.8276 15.736 91.8196 15.904 91.8036 16.096C91.7876 16.272 91.7716 16.44 91.7556 16.6H81.2676V14.416H89.7876L88.3476 15.064C88.3476 14.392 88.2116 13.808 87.9396 13.312C87.6676 12.816 87.2916 12.432 86.8116 12.16C86.3316 11.872 85.7716 11.728 85.1316 11.728C84.4916 11.728 83.9236 11.872 83.4276 12.16C82.9476 12.432 82.5716 12.824 82.2996 13.336C82.0276 13.832 81.8916 14.424 81.8916 15.112V15.688C81.8916 16.392 82.0436 17.016 82.3476 17.56C82.6676 18.088 83.1076 18.496 83.6676 18.784C84.2436 19.056 84.9156 19.192 85.6836 19.192C86.3716 19.192 86.9716 19.088 87.4836 18.88C88.0116 18.672 88.4916 18.36 88.9236 17.944L90.9156 20.104C90.3236 20.776 89.5796 21.296 88.6836 21.664C87.7876 22.016 86.7556 22.192 85.5876 22.192ZM95.8178 26.848C95.1458 26.848 94.4818 26.744 93.8258 26.536C93.1698 26.328 92.6338 26.04 92.2178 25.672L93.5858 23.008C93.8738 23.264 94.2018 23.464 94.5698 23.608C94.9538 23.752 95.3298 23.824 95.6978 23.824C96.2258 23.824 96.6418 23.696 96.9458 23.44C97.2658 23.2 97.5538 22.792 97.8098 22.216L98.4818 20.632L98.7698 20.224L103.402 9.088H107.002L101.17 22.792C100.754 23.832 100.274 24.648 99.7298 25.24C99.2018 25.832 98.6098 26.248 97.9538 26.488C97.3138 26.728 96.6018 26.848 95.8178 26.848ZM98.0258 22.504L92.2658 9.088H96.1298L100.594 19.888L98.0258 22.504ZM114.422 22.192C113.046 22.192 111.822 21.904 110.75 21.328C109.694 20.752 108.854 19.968 108.23 18.976C107.622 17.968 107.318 16.824 107.318 15.544C107.318 14.248 107.622 13.104 108.23 12.112C108.854 11.104 109.694 10.32 110.75 9.76C111.822 9.184 113.046 8.896 114.422 8.896C115.782 8.896 116.998 9.184 118.07 9.76C119.142 10.32 119.982 11.096 120.59 12.088C121.198 13.08 121.502 14.232 121.502 15.544C121.502 16.824 121.198 17.968 120.59 18.976C119.982 19.968 119.142 20.752 118.07 21.328C116.998 21.904 115.782 22.192 114.422 22.192ZM114.422 19.12C115.046 19.12 115.606 18.976 116.102 18.688C116.598 18.4 116.99 17.992 117.278 17.464C117.566 16.92 117.71 16.28 117.71 15.544C117.71 14.792 117.566 14.152 117.278 13.624C116.99 13.096 116.598 12.688 116.102 12.4C115.606 12.112 115.046 11.968 114.422 11.968C113.798 11.968 113.238 12.112 112.742 12.4C112.246 12.688 111.846 13.096 111.542 13.624C111.254 14.152 111.11 14.792 111.11 15.544C111.11 16.28 111.254 16.92 111.542 17.464C111.846 17.992 112.246 18.4 112.742 18.688C113.238 18.976 113.798 19.12 114.422 19.12ZM131.953 8.896C132.977 8.896 133.889 9.104 134.689 9.52C135.505 9.92 136.145 10.544 136.609 11.392C137.073 12.224 137.305 13.296 137.305 14.608V22H133.561V15.184C133.561 14.144 133.329 13.376 132.865 12.88C132.417 12.384 131.777 12.136 130.945 12.136C130.353 12.136 129.817 12.264 129.337 12.52C128.873 12.76 128.505 13.136 128.233 13.648C127.977 14.16 127.849 14.816 127.849 15.616V22H124.105V9.088H127.681V12.664L127.009 11.584C127.473 10.72 128.137 10.056 129.001 9.592C129.865 9.128 130.849 8.896 131.953 8.896ZM146.436 22.192C145.22 22.192 144.124 21.92 143.148 21.376C142.172 20.816 141.396 20.04 140.82 19.048C140.26 18.056 139.98 16.888 139.98 15.544C139.98 14.184 140.26 13.008 140.82 12.016C141.396 11.024 142.172 10.256 143.148 9.712C144.124 9.168 145.22 8.896 146.436 8.896C147.524 8.896 148.476 9.136 149.292 9.616C150.108 10.096 150.74 10.824 151.188 11.8C151.636 12.776 151.86 14.024 151.86 15.544C151.86 17.048 151.644 18.296 151.212 19.288C150.78 20.264 150.156 20.992 149.34 21.472C148.54 21.952 147.572 22.192 146.436 22.192ZM147.084 19.12C147.692 19.12 148.244 18.976 148.74 18.688C149.236 18.4 149.628 17.992 149.916 17.464C150.22 16.92 150.372 16.28 150.372 15.544C150.372 14.792 150.22 14.152 149.916 13.624C149.628 13.096 149.236 12.688 148.74 12.4C148.244 12.112 147.692 11.968 147.084 11.968C146.46 11.968 145.9 12.112 145.404 12.4C144.908 12.688 144.508 13.096 144.204 13.624C143.916 14.152 143.772 14.792 143.772 15.544C143.772 16.28 143.916 16.92 144.204 17.464C144.508 17.992 144.908 18.4 145.404 18.688C145.9 18.976 146.46 19.12 147.084 19.12ZM150.468 22V19.36L150.54 15.52L150.3 11.704V4.192H154.044V22H150.468ZM66.512 46.288C65.168 46.288 63.88 46.112 62.648 45.76C61.416 45.392 60.424 44.92 59.672 44.344L60.992 41.416C61.712 41.928 62.56 42.352 63.536 42.688C64.528 43.008 65.528 43.168 66.536 43.168C67.304 43.168 67.92 43.096 68.384 42.952C68.864 42.792 69.216 42.576 69.44 42.304C69.664 42.032 69.776 41.72 69.776 41.368C69.776 40.92 69.6 40.568 69.248 40.312C68.896 40.04 68.432 39.824 67.856 39.664C67.28 39.488 66.64 39.328 65.936 39.184C65.248 39.024 64.552 38.832 63.848 38.608C63.16 38.384 62.528 38.096 61.952 37.744C61.376 37.392 60.904 36.928 60.536 36.352C60.184 35.776 60.008 35.04 60.008 34.144C60.008 33.184 60.264 32.312 60.776 31.528C61.304 30.728 62.088 30.096 63.128 29.632C64.184 29.152 65.504 28.912 67.088 28.912C68.144 28.912 69.184 29.04 70.208 29.296C71.232 29.536 72.136 29.904 72.92 30.4L71.72 33.352C70.936 32.904 70.152 32.576 69.368 32.368C68.584 32.144 67.816 32.032 67.064 32.032C66.312 32.032 65.696 32.12 65.216 32.296C64.736 32.472 64.392 32.704 64.184 32.992C63.976 33.264 63.872 33.584 63.872 33.952C63.872 34.384 64.048 34.736 64.4 35.008C64.752 35.264 65.216 35.472 65.792 35.632C66.368 35.792 67 35.952 67.688 36.112C68.392 36.272 69.088 36.456 69.776 36.664C70.48 36.872 71.12 37.152 71.696 37.504C72.272 37.856 72.736 38.32 73.088 38.896C73.456 39.472 73.64 40.2 73.64 41.08C73.64 42.024 73.376 42.888 72.848 43.672C72.32 44.456 71.528 45.088 70.472 45.568C69.432 46.048 68.112 46.288 66.512 46.288ZM81.5807 46.192C80.5087 46.192 79.5487 45.984 78.7007 45.568C77.8687 45.152 77.2207 44.52 76.7567 43.672C76.2927 42.808 76.0607 41.712 76.0607 40.384V33.088H79.8047V39.832C79.8047 40.904 80.0287 41.696 80.4767 42.208C80.9407 42.704 81.5887 42.952 82.4207 42.952C82.9967 42.952 83.5087 42.832 83.9567 42.592C84.4047 42.336 84.7567 41.952 85.0127 41.44C85.2687 40.912 85.3967 40.256 85.3967 39.472V33.088H89.1407V46H85.5887V42.448L86.2367 43.48C85.8047 44.376 85.1647 45.056 84.3167 45.52C83.4847 45.968 82.5727 46.192 81.5807 46.192ZM97.0533 46.192C95.9493 46.192 94.8853 46.064 93.8613 45.808C92.8533 45.536 92.0533 45.2 91.4613 44.8L92.7093 42.112C93.3013 42.48 93.9973 42.784 94.7973 43.024C95.6133 43.248 96.4133 43.36 97.1973 43.36C98.0613 43.36 98.6693 43.256 99.0213 43.048C99.3893 42.84 99.5733 42.552 99.5733 42.184C99.5733 41.88 99.4293 41.656 99.1413 41.512C98.8693 41.352 98.5013 41.232 98.0373 41.152C97.5733 41.072 97.0613 40.992 96.5013 40.912C95.9573 40.832 95.4053 40.728 94.8453 40.6C94.2853 40.456 93.7733 40.248 93.3093 39.976C92.8453 39.704 92.4693 39.336 92.1813 38.872C91.9093 38.408 91.7733 37.808 91.7733 37.072C91.7733 36.256 92.0053 35.536 92.4693 34.912C92.9493 34.288 93.6373 33.8 94.5333 33.448C95.4293 33.08 96.5013 32.896 97.7493 32.896C98.6293 32.896 99.5253 32.992 100.437 33.184C101.349 33.376 102.109 33.656 102.717 34.024L101.469 36.688C100.845 36.32 100.213 36.072 99.5733 35.944C98.9493 35.8 98.3413 35.728 97.7493 35.728C96.9173 35.728 96.3093 35.84 95.9253 36.064C95.5413 36.288 95.3493 36.576 95.3493 36.928C95.3493 37.248 95.4853 37.488 95.7573 37.648C96.0453 37.808 96.4213 37.936 96.8853 38.032C97.3493 38.128 97.8533 38.216 98.3973 38.296C98.9573 38.36 99.5173 38.464 100.077 38.608C100.637 38.752 101.141 38.96 101.589 39.232C102.053 39.488 102.429 39.848 102.717 40.312C103.005 40.76 103.149 41.352 103.149 42.088C103.149 42.888 102.909 43.6 102.429 44.224C101.949 44.832 101.253 45.312 100.341 45.664C99.4453 46.016 98.3493 46.192 97.0533 46.192ZM110.839 46.192C109.319 46.192 108.135 45.808 107.287 45.04C106.439 44.256 106.015 43.096 106.015 41.56V30.232H109.759V41.512C109.759 42.056 109.903 42.48 110.191 42.784C110.479 43.072 110.871 43.216 111.367 43.216C111.959 43.216 112.463 43.056 112.879 42.736L113.887 45.376C113.503 45.648 113.039 45.856 112.495 46C111.967 46.128 111.415 46.192 110.839 46.192ZM104.023 36.256V33.376H112.975V36.256H104.023ZM124.009 46V43.48L123.769 42.928V38.416C123.769 37.616 123.521 36.992 123.025 36.544C122.545 36.096 121.801 35.872 120.793 35.872C120.105 35.872 119.425 35.984 118.753 36.208C118.097 36.416 117.537 36.704 117.073 37.072L115.729 34.456C116.433 33.96 117.281 33.576 118.273 33.304C119.265 33.032 120.273 32.896 121.297 32.896C123.265 32.896 124.793 33.36 125.881 34.288C126.969 35.216 127.513 36.664 127.513 38.632V46H124.009ZM120.073 46.192C119.065 46.192 118.201 46.024 117.481 45.688C116.761 45.336 116.209 44.864 115.825 44.272C115.441 43.68 115.249 43.016 115.249 42.28C115.249 41.512 115.433 40.84 115.801 40.264C116.185 39.688 116.785 39.24 117.601 38.92C118.417 38.584 119.481 38.416 120.793 38.416H124.225V40.6H121.201C120.321 40.6 119.713 40.744 119.377 41.032C119.057 41.32 118.897 41.68 118.897 42.112C118.897 42.592 119.081 42.976 119.449 43.264C119.833 43.536 120.353 43.672 121.009 43.672C121.633 43.672 122.193 43.528 122.689 43.24C123.185 42.936 123.545 42.496 123.769 41.92L124.345 43.648C124.073 44.48 123.577 45.112 122.857 45.544C122.137 45.976 121.209 46.192 120.073 46.192ZM131.001 46V33.088H134.745V46H131.001ZM132.873 31.288C132.185 31.288 131.625 31.088 131.193 30.688C130.761 30.288 130.545 29.792 130.545 29.2C130.545 28.608 130.761 28.112 131.193 27.712C131.625 27.312 132.185 27.112 132.873 27.112C133.561 27.112 134.121 27.304 134.553 27.688C134.985 28.056 135.201 28.536 135.201 29.128C135.201 29.752 134.985 30.272 134.553 30.688C134.137 31.088 133.577 31.288 132.873 31.288ZM146.168 32.896C147.192 32.896 148.104 33.104 148.904 33.52C149.72 33.92 150.36 34.544 150.824 35.392C151.288 36.224 151.52 37.296 151.52 38.608V46H147.776V39.184C147.776 38.144 147.544 37.376 147.08 36.88C146.632 36.384 145.992 36.136 145.16 36.136C144.568 36.136 144.032 36.264 143.552 36.52C143.088 36.76 142.72 37.136 142.448 37.648C142.192 38.16 142.064 38.816 142.064 39.616V46H138.32V33.088H141.896V36.664L141.224 35.584C141.688 34.72 142.352 34.056 143.216 33.592C144.08 33.128 145.064 32.896 146.168 32.896ZM162.934 46V43.48L162.694 42.928V38.416C162.694 37.616 162.446 36.992 161.95 36.544C161.47 36.096 160.726 35.872 159.718 35.872C159.03 35.872 158.35 35.984 157.678 36.208C157.022 36.416 156.462 36.704 155.998 37.072L154.654 34.456C155.358 33.96 156.206 33.576 157.198 33.304C158.19 33.032 159.198 32.896 160.222 32.896C162.19 32.896 163.718 33.36 164.806 34.288C165.894 35.216 166.438 36.664 166.438 38.632V46H162.934ZM158.998 46.192C157.99 46.192 157.126 46.024 156.406 45.688C155.686 45.336 155.134 44.864 154.75 44.272C154.366 43.68 154.174 43.016 154.174 42.28C154.174 41.512 154.358 40.84 154.726 40.264C155.11 39.688 155.71 39.24 156.526 38.92C157.342 38.584 158.406 38.416 159.718 38.416H163.15V40.6H160.126C159.246 40.6 158.638 40.744 158.302 41.032C157.982 41.32 157.822 41.68 157.822 42.112C157.822 42.592 158.006 42.976 158.374 43.264C158.758 43.536 159.278 43.672 159.934 43.672C160.558 43.672 161.118 43.528 161.614 43.24C162.11 42.936 162.47 42.496 162.694 41.92L163.27 43.648C162.998 44.48 162.502 45.112 161.782 45.544C161.062 45.976 160.134 46.192 158.998 46.192ZM177.558 46.192C176.422 46.192 175.446 45.952 174.63 45.472C173.814 44.992 173.19 44.264 172.758 43.288C172.326 42.296 172.11 41.048 172.11 39.544C172.11 38.024 172.334 36.776 172.782 35.8C173.246 34.824 173.886 34.096 174.702 33.616C175.518 33.136 176.47 32.896 177.558 32.896C178.774 32.896 179.862 33.168 180.822 33.712C181.798 34.256 182.566 35.024 183.126 36.016C183.702 37.008 183.99 38.184 183.99 39.544C183.99 40.888 183.702 42.056 183.126 43.048C182.566 44.04 181.798 44.816 180.822 45.376C179.862 45.92 178.774 46.192 177.558 46.192ZM169.926 46V28.192H173.67V35.704L173.43 39.52L173.502 43.36V46H169.926ZM176.91 43.12C177.534 43.12 178.086 42.976 178.566 42.688C179.062 42.4 179.454 41.992 179.742 41.464C180.046 40.92 180.198 40.28 180.198 39.544C180.198 38.792 180.046 38.152 179.742 37.624C179.454 37.096 179.062 36.688 178.566 36.4C178.086 36.112 177.534 35.968 176.91 35.968C176.286 35.968 175.726 36.112 175.23 36.4C174.734 36.688 174.342 37.096 174.054 37.624C173.766 38.152 173.622 38.792 173.622 39.544C173.622 40.28 173.766 40.92 174.054 41.464C174.342 41.992 174.734 42.4 175.23 42.688C175.726 42.976 176.286 43.12 176.91 43.12ZM186.597 46V33.088H190.341V46H186.597ZM188.469 31.288C187.781 31.288 187.221 31.088 186.789 30.688C186.357 30.288 186.141 29.792 186.141 29.2C186.141 28.608 186.357 28.112 186.789 27.712C187.221 27.312 187.781 27.112 188.469 27.112C189.157 27.112 189.717 27.304 190.149 27.688C190.581 28.056 190.797 28.536 190.797 29.128C190.797 29.752 190.581 30.272 190.149 30.688C189.733 31.088 189.173 31.288 188.469 31.288ZM193.916 46V28.192H197.66V46H193.916ZM201.234 46V33.088H204.978V46H201.234ZM203.106 31.288C202.418 31.288 201.858 31.088 201.426 30.688C200.994 30.288 200.778 29.792 200.778 29.2C200.778 28.608 200.994 28.112 201.426 27.712C201.858 27.312 202.418 27.112 203.106 27.112C203.794 27.112 204.354 27.304 204.786 27.688C205.218 28.056 205.434 28.536 205.434 29.128C205.434 29.752 205.218 30.272 204.786 30.688C204.37 31.088 203.81 31.288 203.106 31.288ZM213.833 46.192C212.313 46.192 211.129 45.808 210.281 45.04C209.433 44.256 209.009 43.096 209.009 41.56V30.232H212.753V41.512C212.753 42.056 212.897 42.48 213.185 42.784C213.473 43.072 213.865 43.216 214.361 43.216C214.953 43.216 215.457 43.056 215.873 42.736L216.881 45.376C216.497 45.648 216.033 45.856 215.489 46C214.961 46.128 214.409 46.192 213.833 46.192ZM207.017 36.256V33.376H215.969V36.256H207.017ZM220.48 50.848C219.808 50.848 219.144 50.744 218.488 50.536C217.832 50.328 217.296 50.04 216.88 49.672L218.248 47.008C218.536 47.264 218.864 47.464 219.232 47.608C219.616 47.752 219.992 47.824 220.36 47.824C220.888 47.824 221.304 47.696 221.608 47.44C221.928 47.2 222.216 46.792 222.472 46.216L223.144 44.632L223.432 44.224L228.064 33.088H231.664L225.832 46.792C225.416 47.832 224.936 48.648 224.392 49.24C223.864 49.832 223.272 50.248 222.616 50.488C221.976 50.728 221.264 50.848 220.48 50.848ZM222.688 46.504L216.928 33.088H220.792L225.256 43.888L222.688 46.504Z" fill="#1D1D1D"/>
<path d="M39.8787 6.12132L5.12132 40.8787C3.23143 42.7686 4.56993 46 7.24264 46H42C43.6569 46 45 44.6569 45 43V8.24264C45 5.56993 41.7686 4.23142 39.8787 6.12132Z" stroke="#1D1D1D" stroke-width="4"/>
</svg>
